<svg width="45" height="34" viewBox="0 0 45 34" fill="none" xmlns="http://www.w3.org/2000/svg">
<path d="M37.4573 3.70262C37.4454 3.68 37.4256 3.66228 37.4014 3.65262C34.6135 2.40323 31.6714 1.51232 28.6489 1.00219C28.6214 0.997199 28.593 1.0008 28.5678 1.01247C28.5425 1.02414 28.5217 1.04328 28.5082 1.06719C28.1076 1.77739 27.7439 2.5069 27.4186 3.25291C24.1604 2.76982 20.8463 2.76982 17.5881 3.25291C17.2606 2.505 16.8911 1.77532 16.4813 1.06719C16.4672 1.0438 16.4463 1.0251 16.4212 1.0135C16.3961 1.00191 16.368 0.997965 16.3406 1.00219C13.3177 1.51125 10.3754 2.40223 7.58786 3.65269C7.564 3.66257 7.54386 3.67945 7.53024 3.70098C1.95565 11.8323 0.428556 19.7637 1.17769 27.5968C1.1798 27.616 1.18584 27.6346 1.19545 27.6515C1.20506 27.6684 1.21805 27.6832 1.23364 27.695C4.47967 30.0426 8.1104 31.8345 11.9709 32.9943C11.9981 33.0022 12.0271 33.0019 12.0541 32.9933C12.081 32.9846 12.1047 32.9681 12.1217 32.946C12.9509 31.844 13.6856 30.6772 14.3183 29.4573C14.327 29.4405 14.332 29.4222 14.3329 29.4034C14.3338 29.3847 14.3306 29.366 14.3236 29.3485C14.3166 29.331 14.3058 29.3152 14.2921 29.3021C14.2783 29.289 14.2619 29.2789 14.2438 29.2724C13.0853 28.8394 11.9637 28.3175 10.8895 27.7115C10.87 27.7003 10.8536 27.6845 10.8418 27.6657C10.83 27.6468 10.8231 27.6254 10.8218 27.6034C10.8204 27.5813 10.8247 27.5592 10.8341 27.5392C10.8436 27.5191 10.858 27.5016 10.876 27.4882C11.1014 27.3233 11.3269 27.1517 11.5421 26.9784C11.5612 26.963 11.5844 26.9532 11.6089 26.9499C11.6335 26.9467 11.6585 26.9502 11.6811 26.9601C18.7182 30.0971 26.337 30.0971 33.2908 26.9601C33.3135 26.9496 33.3387 26.9456 33.3637 26.9485C33.3886 26.9515 33.4121 26.9613 33.4315 26.9768C33.6468 27.15 33.8723 27.3233 34.0994 27.4882C34.1175 27.5014 34.132 27.5188 34.1416 27.5388C34.1512 27.5588 34.1556 27.5809 34.1544 27.6029C34.1533 27.625 34.1465 27.6464 34.1349 27.6654C34.1232 27.6843 34.1069 27.7001 34.0875 27.7115C33.0158 28.3226 31.8932 28.8442 30.7316 29.2708C30.7136 29.2775 30.6972 29.2878 30.6835 29.3011C30.6698 29.3144 30.6592 29.3304 30.6523 29.348C30.6454 29.3656 30.6424 29.3845 30.6435 29.4033C30.6445 29.4221 30.6496 29.4405 30.6585 29.4573C31.3018 30.6704 32.0354 31.8358 32.8534 32.9441C32.87 32.9668 32.8935 32.9839 32.9206 32.9928C32.9476 33.0018 32.9769 33.0022 33.0042 32.9941C36.8716 31.8382 40.5087 30.0461 43.7588 27.695C43.7746 27.6838 43.7878 27.6693 43.7975 27.6527C43.8071 27.636 43.813 27.6175 43.8148 27.5985C44.7116 18.5425 42.3133 10.6761 37.4573 3.70262ZM15.3693 22.8272C13.2506 22.8272 11.5048 20.9282 11.5048 18.5959C11.5048 16.2636 13.2167 14.3644 15.3693 14.3644C17.5387 14.3644 19.2675 16.2801 19.2337 18.5957C19.2337 20.9282 17.5217 22.8272 15.3693 22.8272ZM29.6573 22.8272C27.5387 22.8272 25.7929 20.9282 25.7929 18.5959C25.7929 16.2636 27.5048 14.3644 29.6573 14.3644C31.8269 14.3644 33.5556 16.2801 33.5218 18.5957C33.5218 20.9282 31.8269 22.8272 29.6573 22.8272Z" fill="white" stroke="url(#paint0_linear_130_21)" stroke-width="2"/>
<defs>
<linearGradient id="paint0_linear_130_21" x1="22.5" y1="1" x2="22.5" y2="33" gradientUnits="userSpaceOnUse">
<stop stop-color="#BE82FF"/>
<stop offset="0.505208" stop-color="#70C1FB"/>
<stop offset="1" stop-color="#00FF7D"/>
</linearGradient>
</defs>
</svg>
