<svg width="43" height="43" viewBox="0 0 43 43" fill="none" xmlns="http://www.w3.org/2000/svg">
<path d="M13.9749 3.58325H29.0249C34.7583 3.58325 39.4166 8.24159 39.4166 13.9749V29.0249C39.4166 31.781 38.3218 34.4241 36.3729 36.3729C34.4241 38.3218 31.781 39.4166 29.0249 39.4166H13.9749C8.24159 39.4166 3.58325 34.7583 3.58325 29.0249V13.9749C3.58325 11.2189 4.67809 8.57572 6.6269 6.6269C8.57572 4.67809 11.2189 3.58325 13.9749 3.58325ZM13.6166 7.16659C11.9059 7.16659 10.2654 7.84614 9.05575 9.05575C7.84614 10.2654 7.16659 11.9059 7.16659 13.6166V29.3833C7.16659 32.9487 10.0512 35.8333 13.6166 35.8333H29.3833C31.0939 35.8333 32.7345 35.1537 33.9441 33.9441C35.1537 32.7345 35.8333 31.0939 35.8333 29.3833V13.6166C35.8333 10.0512 32.9487 7.16659 29.3833 7.16659H13.6166ZM30.9062 9.85409C31.5001 9.85409 32.0698 10.09 32.4898 10.51C32.9098 10.93 33.1458 11.4997 33.1458 12.0937C33.1458 12.6876 32.9098 13.2573 32.4898 13.6773C32.0698 14.0973 31.5001 14.3333 30.9062 14.3333C30.3122 14.3333 29.7425 14.0973 29.3225 13.6773C28.9025 13.2573 28.6666 12.6876 28.6666 12.0937C28.6666 11.4997 28.9025 10.93 29.3225 10.51C29.7425 10.09 30.3122 9.85409 30.9062 9.85409ZM21.4999 12.5416C23.8758 12.5416 26.1544 13.4854 27.8344 15.1654C29.5144 16.8454 30.4583 19.124 30.4583 21.4999C30.4583 23.8758 29.5144 26.1544 27.8344 27.8344C26.1544 29.5144 23.8758 30.4583 21.4999 30.4583C19.124 30.4583 16.8454 29.5144 15.1654 27.8344C13.4854 26.1544 12.5416 23.8758 12.5416 21.4999C12.5416 19.124 13.4854 16.8454 15.1654 15.1654C16.8454 13.4854 19.124 12.5416 21.4999 12.5416ZM21.4999 16.1249C20.0744 16.1249 18.7072 16.6912 17.6992 17.6992C16.6912 18.7072 16.1249 20.0744 16.1249 21.4999C16.1249 22.9255 16.6912 24.2926 17.6992 25.3006C18.7072 26.3086 20.0744 26.8749 21.4999 26.8749C22.9255 26.8749 24.2926 26.3086 25.3006 25.3006C26.3086 24.2926 26.8749 22.9255 26.8749 21.4999C26.8749 20.0744 26.3086 18.7072 25.3006 17.6992C24.2926 16.6912 22.9255 16.1249 21.4999 16.1249Z" fill="white" stroke="url(#paint0_linear_149_166)" stroke-width="1.5"/>
<defs>
<linearGradient id="paint0_linear_149_166" x1="21.4999" y1="3.58325" x2="21.4999" y2="39.4166" gradientUnits="userSpaceOnUse">
<stop stop-color="#BE82FF"/>
<stop offset="0.505208" stop-color="#70C1FB"/>
<stop offset="1" stop-color="#00FF7D"/>
</linearGradient>
</defs>
</svg>
