<svg width="36" height="40" viewBox="0 0 36 40" fill="none" xmlns="http://www.w3.org/2000/svg">
<path d="M35 16.5832C31.6578 16.591 28.3976 15.5717 25.6799 13.6694V26.9371C25.679 29.3944 24.9109 31.7929 23.4785 33.8119C22.046 35.8308 20.0173 37.374 17.6638 38.235C15.3102 39.096 12.744 39.2339 10.3081 38.6301C7.87231 38.0264 5.68302 36.7098 4.03301 34.8564C2.383 33.0031 1.35091 30.7013 1.07476 28.2589C0.798599 25.8164 1.29154 23.3497 2.48765 21.1886C3.68377 19.0276 5.52605 17.2751 7.76817 16.1655C10.0103 15.056 12.5453 14.6423 15.0344 14.9797V21.6529C13.8954 21.3025 12.6723 21.3131 11.5398 21.683C10.4073 22.053 9.42334 22.7634 8.72836 23.7129C8.03338 24.6623 7.66296 25.8023 7.66999 26.9699C7.67702 28.1375 8.06115 29.2731 8.76752 30.2144C9.47389 31.1558 10.4664 31.8549 11.6032 32.2118C12.7401 32.5686 13.9632 32.5651 15.0979 32.2016C16.2326 31.8382 17.2209 31.1334 17.9215 30.188C18.6222 29.2425 18.9995 28.1047 18.9994 26.9371V1H25.6799C25.6753 1.55169 25.7226 2.10263 25.8211 2.64585C26.0533 3.8585 26.536 5.0121 27.2396 6.03608C27.9433 7.06006 28.8532 7.93289 29.9137 8.60118C31.4224 9.57673 33.1913 10.0967 35 10.0963V16.5832Z" fill="white" stroke="url(#paint0_linear_130_24)" stroke-width="2"/>
<defs>
<linearGradient id="paint0_linear_130_24" x1="18" y1="1" x2="18" y2="39" gradientUnits="userSpaceOnUse">
<stop stop-color="#BE82FF"/>
<stop offset="0.505208" stop-color="#70C1FB"/>
<stop offset="1" stop-color="#00FF7D"/>
</linearGradient>
</defs>
</svg>
