<svg width="381" height="477" viewBox="0 0 381 477" fill="none" xmlns="http://www.w3.org/2000/svg">
<path d="M318.602 142.364L291.997 0.000488281C291.997 0.000488281 99.2392 13.3914 34.9996 88C-13.2355 144.021 3.63482 227.553 3.63482 227.553C17.8237 283.294 71.0188 286.399 101.137 292.848C131.256 299.297 181.794 312.233 158.311 312.233L157.412 312.233C140.021 312.235 98.084 312.24 39.3687 305.601L18.4388 327.026L75.1027 477C130.422 472.778 195.497 469.5 271.639 445.883C322.232 430.191 393.644 374.977 377.819 287.747C358.108 179.092 290.016 187.764 274.702 187.764C256.374 187.764 187.409 188.784 191.493 176.542C195.577 164.299 259.898 164.809 297.163 164.809L318.602 142.364Z" fill="url(#paint0_linear_112_170)"/>
<path d="M294.956 160.67L266.902 30C253.445 31.5313 224.589 34.798 216.821 35.6147C207.112 36.6356 129.946 46.8442 75.7772 77.4699C21.6081 108.096 10.3654 163.222 24.6742 219.369C36.1213 264.287 89.522 273.041 114.615 278.069C132.449 281.642 173.486 286.848 177.983 303.59C182.48 320.332 87.4779 309.715 39.4412 306.142L92.1301 446C136.76 442.597 233.89 432.116 265.369 417.416L266.301 416.981C305.48 398.691 353.202 376.412 345.09 290.829C336.913 204.567 270.479 201.504 257.193 201.504C243.906 201.504 179.005 204.567 172.362 181.087C167.047 162.303 252.54 159.649 294.956 160.67Z" fill="white"/>
<defs>
<linearGradient id="paint0_linear_112_170" x1="138.5" y1="-2.00001" x2="198.5" y2="460" gradientUnits="userSpaceOnUse">
<stop stop-color="#A55FE9"/>
<stop offset="0.446666" stop-color="#A55FE9"/>
<stop offset="0.546666" stop-color="#3FB1EB"/>
<stop offset="0.666666" stop-color="#2ADA85"/>
<stop offset="1" stop-color="#2ADA85"/>
</linearGradient>
</defs>
</svg>
