<svg width="477" height="477" viewBox="0 0 477 477" fill="none" xmlns="http://www.w3.org/2000/svg">
<path d="M366.825 142.363L340.22 0C340.22 0 147.462 13.3909 83.2228 87.9995C34.9877 144.02 51.858 227.553 51.858 227.553C66.0469 283.294 119.242 286.398 149.36 292.848C179.479 299.297 229.982 312.5 206.5 312.5C189.687 312.5 147.346 312.357 87.5918 305.601L66.662 327.025L123.326 477C178.646 472.777 243.72 469.5 319.862 445.883C370.455 430.19 441.868 374.977 426.043 287.746C406.331 179.092 338.239 187.764 322.925 187.764C304.597 187.764 235.632 188.784 239.716 176.541C243.8 164.298 308.121 164.808 345.386 164.808L366.825 142.363Z" fill="url(#paint0_linear_328_241)"/>
<path d="M343 158.5L315.125 29.9995C301.668 31.5308 272.812 34.7975 265.044 35.6142C255.335 36.6351 178.169 46.8437 124 77.4694C69.8312 108.095 58.5886 163.222 72.8974 219.369C84.3444 264.287 137.745 273.041 162.839 278.068C180.672 281.641 221.709 286.848 226.206 303.59C230.703 320.332 136.5 308 87.5918 305.601L140.353 446C184.983 442.597 282.113 432.116 313.592 417.415L314.524 416.98C353.703 398.69 401.425 376.412 393.313 290.829C385.136 204.566 318.702 201.504 305.416 201.504C292.129 201.504 227.228 204.566 220.585 181.087C215.27 162.303 298 154.5 343 158.5Z" fill="white"/>
<defs>
<linearGradient id="paint0_linear_328_241" x1="186.723" y1="-2.0005" x2="246.723" y2="459.999" gradientUnits="userSpaceOnUse">
<stop stop-color="#A55FE9"/>
<stop offset="0.446666" stop-color="#A55FE9"/>
<stop offset="0.546666" stop-color="#3FB1EB"/>
<stop offset="0.666666" stop-color="#2ADA85"/>
<stop offset="1" stop-color="#2ADA85"/>
</linearGradient>
</defs>
</svg>
