<svg width="46" height="37" viewBox="0 0 46 37" fill="none" xmlns="http://www.w3.org/2000/svg">
<path d="M38.6828 10.4734C38.7095 10.8453 38.7095 11.2172 38.7095 11.5891C38.7095 22.9312 30.0484 36 14.2183 36C9.34138 36 4.81094 34.5921 1 32.1485C1.69292 32.2281 2.3591 32.2547 3.07868 32.2547C7.10274 32.2547 10.8071 30.9 13.7653 28.5891C9.98098 28.5094 6.80964 26.0391 5.71698 22.6391C6.25002 22.7187 6.78298 22.7718 7.34268 22.7718C8.1155 22.7718 8.8884 22.6655 9.6079 22.4797C5.66374 21.6828 2.70552 18.2297 2.70552 14.0594V13.9531C3.85142 14.5907 5.18402 14.9891 6.59636 15.0421C4.27782 13.5015 2.75884 10.8718 2.75884 7.89682C2.75884 6.30309 3.18516 4.84216 3.9314 3.56715C8.16874 8.77339 14.5381 12.1733 21.6802 12.5453C21.5469 11.9078 21.467 11.2438 21.467 10.5797C21.467 5.85152 25.3046 2 30.0749 2C32.5533 2 34.7918 3.03593 36.3642 4.70937C38.3096 4.33752 40.1751 3.62029 41.8274 2.6375C41.1878 4.62974 39.8287 6.30318 38.0432 7.3656C39.7754 7.17976 41.4544 6.70152 43 6.03753C41.8276 7.73746 40.3618 9.25146 38.6828 10.4734Z" fill="white" stroke="url(#paint0_linear_130_23)" stroke-width="2"/>
<defs>
<linearGradient id="paint0_linear_130_23" x1="22" y1="2" x2="22" y2="36" gradientUnits="userSpaceOnUse">
<stop stop-color="#BE82FF"/>
<stop offset="0.505208" stop-color="#70C1FB"/>
<stop offset="1" stop-color="#00FF7D"/>
</linearGradient>
</defs>
</svg>
