<svg width="42" height="30" viewBox="0 0 42 30" fill="none" xmlns="http://www.w3.org/2000/svg">
<path d="M40.1642 5.38105C39.7041 3.65657 38.3487 2.29843 36.6277 1.83752C33.5084 1 21 1 21 1C21 1 8.49171 1 5.37226 1.83752C3.65129 2.2985 2.29587 3.65657 1.83584 5.38105C1 8.50677 1 15.0283 1 15.0283C1 15.0283 1 21.5498 1.83584 24.6755C2.29587 26.4 3.65129 27.7016 5.37226 28.1625C8.49171 29 21 29 21 29C21 29 33.5083 29 36.6277 28.1625C38.3487 27.7016 39.7041 26.4 40.1642 24.6755C41 21.5498 41 15.0283 41 15.0283C41 15.0283 41 8.50677 40.1642 5.38105ZM16.9091 20.9493V9.10724L27.3636 15.0284L16.9091 20.9493Z" fill="white" stroke="url(#paint0_linear_130_22)" stroke-width="2"/>
<defs>
<linearGradient id="paint0_linear_130_22" x1="21" y1="1" x2="21" y2="29" gradientUnits="userSpaceOnUse">
<stop stop-color="#BE82FF"/>
<stop offset="0.505208" stop-color="#70C1FB"/>
<stop offset="1" stop-color="#00FF7D"/>
</linearGradient>
</defs>
</svg>
